<svg width="70" height="70" viewBox="0 0 70 70" fill="none" xmlns="http://www.w3.org/2000/svg">
<path d="M57.5998 41.6814C57.3008 39.5554 55.6967 37.8979 53.6317 37.4038C45.6053 35.4786 43.5933 30.7483 43.2538 25.5017C41.8304 25.2308 39.2982 24.9375 35 24.9375C30.7018 24.9375 28.1696 25.2308 26.7462 25.5017C26.4068 30.7483 24.3947 35.4786 16.3683 37.4038C14.3033 37.9011 12.6993 39.5554 12.4003 41.6814L10.8523 52.6528C10.3072 56.5161 13.0792 60 16.9352 60H53.0649C56.9177 60 59.6928 56.5161 59.1478 52.6528L57.5998 41.6814ZM35 52.0057C30.6551 52.0057 27.1325 48.4357 27.1325 44.037C27.1325 39.6382 30.6551 36.0682 35 36.0682C39.3449 36.0682 42.8676 39.6382 42.8676 44.037C42.8676 48.4357 39.3418 52.0057 35 52.0057ZM65.9906 21.75C65.9158 16.9688 54.0242 9.00319 35 9C15.9727 9.00319 4.08108 16.9688 4.00944 21.75C3.93781 26.5312 4.07485 32.7532 11.905 31.7173C21.0652 30.5029 20.5014 27.2293 20.5014 22.5501C20.5014 19.2861 27.9516 18.4988 35 18.4988C42.0484 18.4988 49.4955 19.2861 49.4986 22.5501C49.4986 27.2293 48.9349 30.5029 58.095 31.7173C65.9221 32.7532 66.0622 26.5312 65.9906 21.75Z" fill="url(#paint0_linear)"/>
<defs>
<linearGradient id="paint0_linear" x1="11.75" y1="13.9891" x2="66.0737" y2="66.5761" gradientUnits="userSpaceOnUse">
<stop stop-color="#5CAEEA"/>
<stop offset="1" stop-color="#4FBEFD"/>
</linearGradient>
</defs>
</svg>
