<svg width="70" height="70" viewBox="0 0 70 70" fill="none" xmlns="http://www.w3.org/2000/svg">
<path d="M5.04089 17.6082L31.7076 32.0454C32.6036 32.5292 33.7627 32.7585 34.9289 32.7585C36.0951 32.7585 37.2542 32.5292 38.1502 32.0454L64.8169 17.6082C66.5555 16.6657 68.1982 13 65.0089 13H4.85245C1.66312 13 3.30578 16.6657 5.04089 17.6082V17.6082ZM65.624 25.5022L38.1502 39.9323C36.9413 40.5702 36.0951 40.6454 34.9289 40.6454C33.7627 40.6454 32.9164 40.5702 31.7076 39.9323C30.4987 39.2945 6.34578 26.5342 4.37245 25.4987C2.98578 24.7677 3.00001 25.6241 3.00001 26.2834V52.4167C3.00001 53.9217 5.01245 56 6.55556 56H63.4444C64.9876 56 67 53.9217 67 52.4167V26.287C67 25.6277 67.0142 24.7712 65.624 25.5022V25.5022Z" fill="url(#paint0_linear)"/>
<defs>
<linearGradient id="paint0_linear" x1="35" y1="13" x2="57.591" y2="60.9755" gradientUnits="userSpaceOnUse">
<stop stop-color="#2682D7"/>
<stop offset="1" stop-color="#3576D7"/>
</linearGradient>
</defs>
</svg>
