<svg width="50" height="46" viewBox="0 0 50 46" fill="none" xmlns="http://www.w3.org/2000/svg">
<rect width="50" height="46" rx="4" fill="#2379CF"/>
<path fill-rule="evenodd" clip-rule="evenodd" d="M12 22.5754C12 29.2871 16.8746 34.8682 23.25 36V26.2496H19.875V22.5H23.25V19.4996C23.25 16.1246 25.4246 14.2504 28.5004 14.2504C29.4746 14.2504 30.5254 14.4 31.4996 14.5496V18H29.775C28.1246 18 27.75 18.8246 27.75 19.8754V22.5H31.35L30.7504 26.2496H27.75V36C34.1254 34.8682 39 29.2882 39 22.5754C39 15.1088 32.925 9 25.5 9C18.075 9 12 15.1088 12 22.5754Z" fill="white"/>
</svg>
