<svg width="117" height="117" viewBox="0 0 117 117" fill="none" xmlns="http://www.w3.org/2000/svg">
<circle cx="58.5" cy="58.5" r="58.5" fill="url(#paint0_linear)"/>
<path d="M68.5714 44.4858C68.5714 47.0774 67.5103 49.5628 65.6216 51.3953C63.7328 53.2278 61.1711 54.2573 58.5 54.2573C55.8289 54.2573 53.2672 53.2278 51.3784 51.3953C49.4897 49.5628 48.4286 47.0774 48.4286 44.4858C48.4286 41.8943 49.4897 39.4089 51.3784 37.5764C53.2672 35.7438 55.8289 34.7144 58.5 34.7144C61.1711 34.7144 63.7328 35.7438 65.6216 37.5764C67.5103 39.4089 68.5714 41.8943 68.5714 44.4858Z" fill="white"/>
<path d="M85.3572 50.9999C85.3572 52.7276 84.6498 54.3845 83.3906 55.6061C82.1314 56.8278 80.4236 57.5141 78.6429 57.5141C76.8622 57.5141 75.1543 56.8278 73.8952 55.6061C72.636 54.3845 71.9286 52.7276 71.9286 50.9999C71.9286 49.2722 72.636 47.6152 73.8952 46.3936C75.1543 45.1719 76.8622 44.4856 78.6429 44.4856C80.4236 44.4856 82.1314 45.1719 83.3906 46.3936C84.6498 47.6152 85.3572 49.2722 85.3572 50.9999Z" fill="white"/>
<path d="M72.1868 73.3348C72.1868 69.8794 70.772 66.5655 68.2537 64.1222C65.7353 61.6788 62.3197 60.3062 58.7582 60.3062C55.1968 60.3062 51.7812 61.6788 49.2628 64.1222C46.7445 66.5655 45.3297 69.8794 45.3297 73.3348V83.1063H72.1868V73.3348Z" fill="white"/>
<path d="M45.0714 50.9999C45.0714 52.7276 44.364 54.3845 43.1048 55.6061C41.8456 56.8278 40.1378 57.5141 38.3571 57.5141C36.5764 57.5141 34.8686 56.8278 33.6094 55.6061C32.3502 54.3845 31.6428 52.7276 31.6428 50.9999C31.6428 49.2722 32.3502 47.6152 33.6094 46.3936C34.8686 45.1719 36.5764 44.4856 38.3571 44.4856C40.1378 44.4856 41.8456 45.1719 43.1048 46.3936C44.364 47.6152 45.0714 49.2722 45.0714 50.9999Z" fill="white"/>
<path d="M78.6429 83.5717V73.8001C78.6478 70.4884 77.7811 67.2304 76.1251 64.3346C77.6134 63.9651 79.1691 63.9302 80.6735 64.2327C82.1779 64.5353 83.5912 65.1671 84.8055 66.0802C86.0199 66.9933 87.0033 68.1634 87.6807 69.5013C88.3581 70.8391 88.7117 72.3095 88.7143 73.8001V83.5717H78.6429Z" fill="white"/>
<path d="M40.875 64.3349C39.2191 67.2306 38.3524 70.4885 38.3571 73.8V83.5712H28.2857V73.8C28.2851 72.3084 28.6364 70.8364 29.3128 69.4969C29.9892 68.1574 30.9727 66.986 32.188 66.0723C33.4032 65.1586 34.818 64.527 36.3237 64.2259C37.8295 63.9247 39.3864 63.962 40.875 64.3349Z" fill="white"/>
<defs>
<linearGradient id="paint0_linear" x1="19.2857" y1="10.9286" x2="111.857" y2="122.143" gradientUnits="userSpaceOnUse">
<stop stop-color="#7DCDFA"/>
<stop offset="1" stop-color="#619FFD"/>
</linearGradient>
</defs>
</svg>
