<svg width="131" height="131" viewBox="0 0 131 131" fill="none" xmlns="http://www.w3.org/2000/svg">
<circle cx="65.5" cy="65.5" r="65.5" fill="url(#paint0_linear)"/>
<path fill-rule="evenodd" clip-rule="evenodd" d="M21.5934 95.9165C21.5934 95.2996 21.8385 94.7079 22.2747 94.2716C22.7109 93.8354 23.3026 93.5903 23.9196 93.5903H107.662C108.279 93.5903 108.87 93.8354 109.306 94.2716C109.743 94.7079 109.988 95.2996 109.988 95.9165C109.988 96.5334 109.743 97.1251 109.306 97.5614C108.87 97.9976 108.279 98.2427 107.662 98.2427H23.9196C23.3026 98.2427 22.7109 97.9976 22.2747 97.5614C21.8385 97.1251 21.5934 96.5334 21.5934 95.9165Z" fill="white"/>
<path fill-rule="evenodd" clip-rule="evenodd" d="M40.2028 63.7223V93.5903H96.0308V63.7223L68.1168 47.7717L40.2028 63.7246V63.7223ZM35.5504 61.0239V98.2426H100.683V61.0239L68.1168 42.4146L35.5504 61.0239Z" fill="white"/>
<path d="M77.4215 68.0024H91.3785V93.5903H77.4215V68.0024Z" fill="white"/>
<path d="M44.855 68.0024H70.4428V81.9595H44.855V68.0024Z" fill="white"/>
<path d="M86.7261 44.3176V37.7625H93.7046V49.3933L86.7261 44.3176Z" fill="white"/>
<path fill-rule="evenodd" clip-rule="evenodd" d="M84.4 37.762C84.4 37.145 84.6451 36.5534 85.0813 36.1171C85.5176 35.6809 86.1093 35.4358 86.7262 35.4358H93.7047C94.3216 35.4358 94.9133 35.6809 95.3496 36.1171C95.7858 36.5534 96.0309 37.145 96.0309 37.762V49.3928C96.0309 49.8219 95.9123 50.2426 95.6881 50.6085C95.464 50.9743 95.143 51.2711 94.7606 51.4658C94.3783 51.6606 93.9496 51.7458 93.5218 51.7121C93.0941 51.6784 92.684 51.527 92.3369 51.2747L85.3584 46.199C85.0615 45.9832 84.8199 45.7001 84.6533 45.3731C84.4868 45.046 84.4 44.6841 84.4 44.3171V37.762ZM89.0524 40.0881V43.1331L91.3785 44.8242V40.0881H89.0524Z" fill="white"/>
<path fill-rule="evenodd" clip-rule="evenodd" d="M66.9374 33.431C67.2948 33.2207 67.702 33.1099 68.1167 33.1099C68.5315 33.1099 68.9386 33.2207 69.2961 33.431L110.846 57.8721L108.487 61.8824L68.1167 38.1345L27.7461 61.8847L25.3873 57.8744L66.9374 33.4333V33.431Z" fill="white"/>
<defs>
<linearGradient id="paint0_linear" x1="131" y1="93.5714" x2="-14.3956" y2="8.63737" gradientUnits="userSpaceOnUse">
<stop stop-color="#D48BDB"/>
<stop offset="1" stop-color="#E0A5CE"/>
</linearGradient>
</defs>
</svg>
