<svg width="50" height="46" viewBox="0 0 50 46" fill="none" xmlns="http://www.w3.org/2000/svg">
<rect width="50" height="46" rx="4" fill="url(#paint0_linear)"/>
<path d="M36.0566 17.7274C36.0435 16.7491 35.8604 15.7806 35.5154 14.8651C35.2161 14.0929 34.7591 13.3916 34.1735 12.806C33.5879 12.2204 32.8866 11.7633 32.1144 11.4641C31.2107 11.1249 30.2559 10.9414 29.2908 10.9216C28.0482 10.8661 27.6543 10.8506 24.5 10.8506C21.3458 10.8506 20.9415 10.8506 19.7079 10.9216C18.7433 10.9416 17.789 11.125 16.8857 11.4641C16.1133 11.7631 15.4119 12.2201 14.8263 12.8057C14.2406 13.3913 13.7837 14.0927 13.4847 14.8651C13.1448 15.7681 12.9617 16.7226 12.9435 17.6874C12.8879 18.9313 12.8712 19.3252 12.8712 22.4795C12.8712 25.6337 12.8712 26.0367 12.9435 27.2715C12.9629 28.2377 13.145 29.191 13.4847 30.0964C13.7842 30.8685 14.2415 31.5697 14.8273 32.155C15.4131 32.7404 16.1146 33.1972 16.8869 33.4961C17.7878 33.849 18.7423 34.0455 19.7092 34.0773C20.9531 34.1329 21.3471 34.1497 24.5013 34.1497C27.6556 34.1497 28.0599 34.1497 29.2934 34.0773C30.2585 34.0583 31.2133 33.8753 32.117 33.5361C32.889 33.2366 33.5901 32.7794 34.1757 32.1939C34.7613 31.6083 35.2184 30.9072 35.5179 30.1352C35.8577 29.231 36.0398 28.2778 36.0592 27.3103C36.1147 26.0677 36.1315 25.6738 36.1315 22.5182C36.1289 19.364 36.1289 18.9635 36.0566 17.7274ZM24.4923 28.4444C21.1934 28.4444 18.5209 25.7719 18.5209 22.473C18.5209 19.1741 21.1934 16.5016 24.4923 16.5016C26.076 16.5016 27.5948 17.1308 28.7147 18.2506C29.8345 19.3705 30.4637 20.8893 30.4637 22.473C30.4637 24.0567 29.8345 25.5756 28.7147 26.6954C27.5948 27.8153 26.076 28.4444 24.4923 28.4444ZM30.7013 17.6732C29.9302 17.6732 29.3089 17.0506 29.3089 16.2808C29.3089 16.098 29.3449 15.917 29.4148 15.7481C29.4848 15.5793 29.5873 15.4259 29.7165 15.2966C29.8458 15.1674 29.9992 15.0649 30.1681 14.9949C30.3369 14.925 30.5179 14.889 30.7007 14.889C30.8834 14.889 31.0644 14.925 31.2333 14.9949C31.4021 15.0649 31.5556 15.1674 31.6848 15.2966C31.814 15.4259 31.9166 15.5793 31.9865 15.7481C32.0564 15.917 32.0924 16.098 32.0924 16.2808C32.0924 17.0506 31.4699 17.6732 30.7013 17.6732Z" fill="white"/>
<path d="M24.4923 26.3515C26.6345 26.3515 28.3712 24.6149 28.3712 22.4726C28.3712 20.3304 26.6345 18.5938 24.4923 18.5938C22.35 18.5938 20.6134 20.3304 20.6134 22.4726C20.6134 24.6149 22.35 26.3515 24.4923 26.3515Z" fill="white"/>
<defs>
<linearGradient id="paint0_linear" x1="25" y1="0" x2="58.5" y2="51" gradientUnits="userSpaceOnUse">
<stop stop-color="#E364BD"/>
<stop offset="1" stop-color="#FFB23E"/>
</linearGradient>
</defs>
</svg>
