<svg width="152" height="32" viewBox="0 0 152 32" fill="none" xmlns="http://www.w3.org/2000/svg">
<path d="M7.74 4.4C8.64 4.4 9.444 4.502 10.152 4.706C10.872 4.898 11.478 5.186 11.97 5.57C12.462 5.942 12.84 6.404 13.104 6.956C13.368 7.496 13.5 8.114 13.5 8.81C13.5 9.77 13.26 10.58 12.78 11.24C12.3 11.9 11.61 12.404 10.71 12.752L13.68 17H10.71L8.064 13.22H7.74H3.87V17H1.26V4.4H7.74ZM3.87 5.75V11.87H7.74C8.688 11.87 9.42 11.624 9.936 11.132C10.452 10.628 10.71 9.854 10.71 8.81C10.71 7.766 10.452 6.998 9.936 6.506C9.42 6.002 8.688 5.75 7.74 5.75H3.87ZM18.2665 5.75V9.89H24.8365V11.24H18.2665V15.65H26.6365V17H15.6565V4.4H26.6365V5.75H18.2665ZM31.0458 17H28.4358V4.4H31.0458V17ZM46.5286 4.4V17H43.1086L36.3586 6.74H36.1786V17H33.5686V4.4H36.9886L43.7386 14.66H43.9186V4.4H46.5286ZM55.1749 15.47H55.3549L59.8729 4.4H62.5549L57.4249 17H53.1049L47.9749 4.4H50.6569L55.1749 15.47ZM66.6063 5.75V9.89H73.1763V11.24H66.6063V15.65H74.9763V17H63.9963V4.4H74.9763V5.75H66.6063ZM88.4756 13.67C88.4756 14.186 88.3676 14.672 88.1516 15.128C87.9356 15.572 87.5816 15.962 87.0896 16.298C86.6096 16.622 85.9796 16.88 85.1996 17.072C84.4316 17.264 83.4836 17.36 82.3556 17.36C81.7196 17.36 81.0956 17.312 80.4836 17.216C79.8836 17.12 79.3076 16.982 78.7556 16.802C78.2156 16.622 77.7116 16.406 77.2436 16.154C76.7876 15.89 76.3916 15.602 76.0556 15.29L76.9556 14.21C77.6396 14.798 78.4376 15.248 79.3496 15.56C80.2616 15.86 81.2636 16.01 82.3556 16.01C83.5676 16.01 84.4256 15.842 84.9296 15.506C85.4336 15.17 85.6856 14.708 85.6856 14.12C85.6856 13.664 85.4876 13.28 85.0916 12.968C84.6956 12.656 84.0236 12.35 83.0756 12.05L79.6556 10.97C78.5276 10.61 77.6756 10.154 77.0996 9.602C76.5236 9.038 76.2356 8.324 76.2356 7.46C76.2356 7.016 76.3376 6.59 76.5416 6.182C76.7576 5.762 77.0876 5.396 77.5316 5.084C77.9756 4.76 78.5396 4.508 79.2236 4.328C79.9196 4.136 80.7536 4.04 81.7256 4.04C82.3136 4.04 82.8956 4.088 83.4716 4.184C84.0596 4.28 84.6176 4.418 85.1456 4.598C85.6856 4.778 86.1836 5 86.6396 5.264C87.1076 5.516 87.5096 5.798 87.8456 6.11L86.9456 7.19C86.2616 6.602 85.4936 6.158 84.6416 5.858C83.7896 5.546 82.8176 5.39 81.7256 5.39C80.8256 5.39 80.1476 5.546 79.6916 5.858C79.2476 6.17 79.0256 6.554 79.0256 7.01C79.0256 7.262 79.0676 7.484 79.1516 7.676C79.2356 7.856 79.3736 8.03 79.5656 8.198C79.7696 8.354 80.0336 8.504 80.3576 8.648C80.6816 8.78 81.0836 8.924 81.5636 9.08L84.9656 10.16C86.0576 10.508 86.9156 10.964 87.5396 11.528C88.1636 12.092 88.4756 12.806 88.4756 13.67ZM100.981 5.75H96.1207V17H93.5107V5.75H88.6507V4.4H100.981V5.75Z" fill="white"/>
<path d="M4.7 27.5127C5.15333 27.5127 5.58667 27.4361 6 27.2827C6.42 27.1227 6.82 26.8661 7.2 26.5127L7.7 27.1127C7.32 27.4661 6.86 27.7461 6.32 27.9527C5.78 28.1594 5.20667 28.2627 4.6 28.2627C3.97333 28.2627 3.40667 28.1827 2.9 28.0227C2.4 27.8627 1.97 27.6261 1.61 27.3127C1.25667 26.9994 0.983333 26.6127 0.79 26.1527C0.596667 25.6927 0.5 25.1627 0.5 24.5627C0.5 23.9627 0.593333 23.4327 0.78 22.9727C0.973333 22.5127 1.24333 22.1261 1.59 21.8127C1.94333 21.4994 2.36667 21.2627 2.86 21.1027C3.35333 20.9427 3.9 20.8627 4.5 20.8627C5.10667 20.8627 5.68 20.9661 6.22 21.1727C6.76 21.3794 7.22 21.6594 7.6 22.0127L7.1 22.6127C6.72 22.2594 6.32 22.0061 5.9 21.8527C5.48667 21.6927 5.05333 21.6127 4.6 21.6127C4.24 21.6127 3.90333 21.6727 3.59 21.7927C3.27667 21.9061 3.00667 22.0827 2.78 22.3227C2.55333 22.5627 2.37333 22.8694 2.24 23.2427C2.11333 23.6094 2.05 24.0494 2.05 24.5627C2.05 25.0761 2.11333 25.5194 2.24 25.8927C2.37333 26.2594 2.55667 26.5627 2.79 26.8027C3.03 27.0427 3.31 27.2227 3.63 27.3427C3.95667 27.4561 4.31333 27.5127 4.7 27.5127ZM12.0977 21.5627C11.7577 21.5627 11.4377 21.6227 11.1377 21.7427C10.8443 21.8627 10.5877 22.0461 10.3677 22.2927C10.1477 22.5394 9.97099 22.8527 9.83766 23.2327C9.71099 23.6061 9.64766 24.0494 9.64766 24.5627C9.64766 25.0761 9.71099 25.5227 9.83766 25.9027C9.97099 26.2761 10.1477 26.5861 10.3677 26.8327C10.5877 27.0794 10.8443 27.2627 11.1377 27.3827C11.4377 27.5027 11.7577 27.5627 12.0977 27.5627C12.4377 27.5627 12.7543 27.5027 13.0477 27.3827C13.3477 27.2627 13.6077 27.0794 13.8277 26.8327C14.0477 26.5861 14.221 26.2761 14.3477 25.9027C14.481 25.5227 14.5477 25.0761 14.5477 24.5627C14.5477 24.0494 14.481 23.6061 14.3477 23.2327C14.221 22.8527 14.0477 22.5394 13.8277 22.2927C13.6077 22.0461 13.3477 21.8627 13.0477 21.7427C12.7543 21.6227 12.4377 21.5627 12.0977 21.5627ZM12.0977 20.8627C12.6977 20.8627 13.241 20.9427 13.7277 21.1027C14.221 21.2627 14.641 21.4994 14.9877 21.8127C15.341 22.1261 15.6143 22.5127 15.8077 22.9727C16.001 23.4327 16.0977 23.9627 16.0977 24.5627C16.0977 25.1627 16.001 25.6927 15.8077 26.1527C15.6143 26.6127 15.341 26.9994 14.9877 27.3127C14.641 27.6261 14.221 27.8627 13.7277 28.0227C13.241 28.1827 12.6977 28.2627 12.0977 28.2627C11.4977 28.2627 10.951 28.1827 10.4577 28.0227C9.96432 27.8627 9.54099 27.6261 9.18766 27.3127C8.84099 26.9994 8.57099 26.6127 8.37766 26.1527C8.19099 25.6927 8.09766 25.1627 8.09766 24.5627C8.09766 23.9627 8.19099 23.4327 8.37766 22.9727C8.57099 22.5127 8.84099 22.1261 9.18766 21.8127C9.54099 21.4994 9.96432 21.2627 10.4577 21.1027C10.951 20.9427 11.4977 20.8627 12.0977 20.8627ZM24.5016 21.0627V28.0627H22.6016L18.8516 22.3627H18.7516V28.0627H17.3016V21.0627H19.2016L22.9516 26.7627H23.0516V21.0627H24.5016ZM32.4051 26.2127C32.4051 26.4994 32.3451 26.7694 32.2251 27.0227C32.1051 27.2694 31.9084 27.4861 31.6351 27.6727C31.3684 27.8527 31.0184 27.9961 30.5851 28.1027C30.1584 28.2094 29.6317 28.2627 29.0051 28.2627C28.6517 28.2627 28.3051 28.2361 27.9651 28.1827C27.6317 28.1294 27.3117 28.0527 27.0051 27.9527C26.7051 27.8527 26.4251 27.7327 26.1651 27.5927C25.9117 27.4461 25.6917 27.2861 25.5051 27.1127L26.0051 26.5127C26.3851 26.8394 26.8284 27.0894 27.3351 27.2627C27.8417 27.4294 28.3984 27.5127 29.0051 27.5127C29.6784 27.5127 30.1551 27.4194 30.4351 27.2327C30.7151 27.0461 30.8551 26.7894 30.8551 26.4627C30.8551 26.2094 30.7451 25.9961 30.5251 25.8227C30.3051 25.6494 29.9317 25.4794 29.4051 25.3127L27.5051 24.7127C26.8784 24.5127 26.4051 24.2594 26.0851 23.9527C25.7651 23.6394 25.6051 23.2427 25.6051 22.7627C25.6051 22.5161 25.6617 22.2794 25.7751 22.0527C25.8951 21.8194 26.0784 21.6161 26.3251 21.4427C26.5717 21.2627 26.8851 21.1227 27.2651 21.0227C27.6517 20.9161 28.1151 20.8627 28.6551 20.8627C28.9817 20.8627 29.3051 20.8894 29.6251 20.9427C29.9517 20.9961 30.2617 21.0727 30.5551 21.1727C30.8551 21.2727 31.1317 21.3961 31.3851 21.5427C31.6451 21.6827 31.8684 21.8394 32.0551 22.0127L31.5551 22.6127C31.1751 22.2861 30.7484 22.0394 30.2751 21.8727C29.8017 21.6994 29.2617 21.6127 28.6551 21.6127C28.1551 21.6127 27.7784 21.6994 27.5251 21.8727C27.2784 22.0461 27.1551 22.2594 27.1551 22.5127C27.1551 22.6527 27.1784 22.7761 27.2251 22.8827C27.2717 22.9827 27.3484 23.0794 27.4551 23.1727C27.5684 23.2594 27.7151 23.3427 27.8951 23.4227C28.0751 23.4961 28.2984 23.5761 28.5651 23.6627L30.4551 24.2627C31.0617 24.4561 31.5384 24.7094 31.8851 25.0227C32.2317 25.3361 32.4051 25.7327 32.4051 26.2127ZM37.2051 21.5627C36.8651 21.5627 36.5451 21.6227 36.2451 21.7427C35.9517 21.8627 35.6951 22.0461 35.4751 22.2927C35.2551 22.5394 35.0784 22.8527 34.9451 23.2327C34.8184 23.6061 34.7551 24.0494 34.7551 24.5627C34.7551 25.0761 34.8184 25.5227 34.9451 25.9027C35.0784 26.2761 35.2551 26.5861 35.4751 26.8327C35.6951 27.0794 35.9517 27.2627 36.2451 27.3827C36.5451 27.5027 36.8651 27.5627 37.2051 27.5627C37.5451 27.5627 37.8617 27.5027 38.1551 27.3827C38.4551 27.2627 38.7151 27.0794 38.9351 26.8327C39.1551 26.5861 39.3284 26.2761 39.4551 25.9027C39.5884 25.5227 39.6551 25.0761 39.6551 24.5627C39.6551 24.0494 39.5884 23.6061 39.4551 23.2327C39.3284 22.8527 39.1551 22.5394 38.9351 22.2927C38.7151 22.0461 38.4551 21.8627 38.1551 21.7427C37.8617 21.6227 37.5451 21.5627 37.2051 21.5627ZM37.2051 20.8627C37.8051 20.8627 38.3484 20.9427 38.8351 21.1027C39.3284 21.2627 39.7484 21.4994 40.0951 21.8127C40.4484 22.1261 40.7217 22.5127 40.9151 22.9727C41.1084 23.4327 41.2051 23.9627 41.2051 24.5627C41.2051 25.1627 41.1084 25.6927 40.9151 26.1527C40.7217 26.6127 40.4484 26.9994 40.0951 27.3127C39.7484 27.6261 39.3284 27.8627 38.8351 28.0227C38.3484 28.1827 37.8051 28.2627 37.2051 28.2627C36.6051 28.2627 36.0584 28.1827 35.5651 28.0227C35.0717 27.8627 34.6484 27.6261 34.2951 27.3127C33.9484 26.9994 33.6784 26.6127 33.4851 26.1527C33.2984 25.6927 33.2051 25.1627 33.2051 24.5627C33.2051 23.9627 33.2984 23.4327 33.4851 22.9727C33.6784 22.5127 33.9484 22.1261 34.2951 21.8127C34.6484 21.4994 35.0717 21.2627 35.5651 21.1027C36.0584 20.9427 36.6051 20.8627 37.2051 20.8627ZM38.7051 18.9627L37.6451 20.4627H36.6951L37.2951 18.9627H38.7051ZM46.009 21.0627C46.509 21.0627 46.9557 21.1194 47.349 21.2327C47.749 21.3394 48.0857 21.4994 48.359 21.7127C48.6323 21.9194 48.8423 22.1761 48.989 22.4827C49.1357 22.7827 49.209 23.1261 49.209 23.5127C49.209 24.0461 49.0757 24.4961 48.809 24.8627C48.5423 25.2294 48.159 25.5094 47.659 25.7027L49.309 28.0627H47.659L46.189 25.9627H46.009H43.859V28.0627H42.409V21.0627H46.009ZM43.859 21.8127V25.2127H46.009C46.5357 25.2127 46.9423 25.0761 47.229 24.8027C47.5157 24.5227 47.659 24.0927 47.659 23.5127C47.659 22.9327 47.5157 22.5061 47.229 22.2327C46.9423 21.9527 46.5357 21.8127 46.009 21.8127H43.859ZM54.407 27.5127C54.8604 27.5127 55.2937 27.4361 55.707 27.2827C56.127 27.1227 56.527 26.8661 56.907 26.5127L57.407 27.1127C57.027 27.4661 56.567 27.7461 56.027 27.9527C55.487 28.1594 54.9137 28.2627 54.307 28.2627C53.6804 28.2627 53.1137 28.1827 52.607 28.0227C52.107 27.8627 51.677 27.6261 51.317 27.3127C50.9637 26.9994 50.6904 26.6127 50.497 26.1527C50.3037 25.6927 50.207 25.1627 50.207 24.5627C50.207 23.9627 50.3004 23.4327 50.487 22.9727C50.6804 22.5127 50.9504 22.1261 51.297 21.8127C51.6504 21.4994 52.0737 21.2627 52.567 21.1027C53.0604 20.9427 53.607 20.8627 54.207 20.8627C54.8137 20.8627 55.387 20.9661 55.927 21.1727C56.467 21.3794 56.927 21.6594 57.307 22.0127L56.807 22.6127C56.427 22.2594 56.027 22.0061 55.607 21.8527C55.1937 21.6927 54.7604 21.6127 54.307 21.6127C53.947 21.6127 53.6104 21.6727 53.297 21.7927C52.9837 21.9061 52.7137 22.0827 52.487 22.3227C52.2604 22.5627 52.0804 22.8694 51.947 23.2427C51.8204 23.6094 51.757 24.0494 51.757 24.5627C51.757 25.0761 51.8204 25.5194 51.947 25.8927C52.0804 26.2594 52.2637 26.5627 52.497 26.8027C52.737 27.0427 53.017 27.2227 53.337 27.3427C53.6637 27.4561 54.0204 27.5127 54.407 27.5127ZM59.7574 28.0627H58.3074V21.0627H59.7574V28.0627ZM64.959 21.5627C64.619 21.5627 64.299 21.6227 63.999 21.7427C63.7057 21.8627 63.449 22.0461 63.229 22.2927C63.009 22.5394 62.8323 22.8527 62.699 23.2327C62.5723 23.6061 62.509 24.0494 62.509 24.5627C62.509 25.0761 62.5723 25.5227 62.699 25.9027C62.8323 26.2761 63.009 26.5861 63.229 26.8327C63.449 27.0794 63.7057 27.2627 63.999 27.3827C64.299 27.5027 64.619 27.5627 64.959 27.5627C65.299 27.5627 65.6157 27.5027 65.909 27.3827C66.209 27.2627 66.469 27.0794 66.689 26.8327C66.909 26.5861 67.0823 26.2761 67.209 25.9027C67.3423 25.5227 67.409 25.0761 67.409 24.5627C67.409 24.0494 67.3423 23.6061 67.209 23.2327C67.0823 22.8527 66.909 22.5394 66.689 22.2927C66.469 22.0461 66.209 21.8627 65.909 21.7427C65.6157 21.6227 65.299 21.5627 64.959 21.5627ZM64.959 20.8627C65.559 20.8627 66.1023 20.9427 66.589 21.1027C67.0823 21.2627 67.5023 21.4994 67.849 21.8127C68.2023 22.1261 68.4757 22.5127 68.669 22.9727C68.8623 23.4327 68.959 23.9627 68.959 24.5627C68.959 25.1627 68.8623 25.6927 68.669 26.1527C68.4757 26.6127 68.2023 26.9994 67.849 27.3127C67.5023 27.6261 67.0823 27.8627 66.589 28.0227C66.1023 28.1827 65.559 28.2627 64.959 28.2627C64.359 28.2627 63.8123 28.1827 63.319 28.0227C62.8257 27.8627 62.4023 27.6261 62.049 27.3127C61.7023 26.9994 61.4323 26.6127 61.239 26.1527C61.0523 25.6927 60.959 25.1627 60.959 24.5627C60.959 23.9627 61.0523 23.4327 61.239 22.9727C61.4323 22.5127 61.7023 22.1261 62.049 21.8127C62.4023 21.4994 62.8257 21.2627 63.319 21.1027C63.8123 20.9427 64.359 20.8627 64.959 20.8627ZM76.6629 26.2127C76.6629 26.4994 76.6029 26.7694 76.4829 27.0227C76.3629 27.2694 76.1662 27.4861 75.8929 27.6727C75.6262 27.8527 75.2762 27.9961 74.8429 28.1027C74.4162 28.2094 73.8896 28.2627 73.2629 28.2627C72.9096 28.2627 72.5629 28.2361 72.2229 28.1827C71.8896 28.1294 71.5696 28.0527 71.2629 27.9527C70.9629 27.8527 70.6829 27.7327 70.4229 27.5927C70.1696 27.4461 69.9496 27.2861 69.7629 27.1127L70.2629 26.5127C70.6429 26.8394 71.0862 27.0894 71.5929 27.2627C72.0996 27.4294 72.6562 27.5127 73.2629 27.5127C73.9362 27.5127 74.4129 27.4194 74.6929 27.2327C74.9729 27.0461 75.1129 26.7894 75.1129 26.4627C75.1129 26.2094 75.0029 25.9961 74.7829 25.8227C74.5629 25.6494 74.1896 25.4794 73.6629 25.3127L71.7629 24.7127C71.1362 24.5127 70.6629 24.2594 70.3429 23.9527C70.0229 23.6394 69.8629 23.2427 69.8629 22.7627C69.8629 22.5161 69.9196 22.2794 70.0329 22.0527C70.1529 21.8194 70.3362 21.6161 70.5829 21.4427C70.8296 21.2627 71.1429 21.1227 71.5229 21.0227C71.9096 20.9161 72.3729 20.8627 72.9129 20.8627C73.2396 20.8627 73.5629 20.8894 73.8829 20.9427C74.2096 20.9961 74.5196 21.0727 74.8129 21.1727C75.1129 21.2727 75.3896 21.3961 75.6429 21.5427C75.9029 21.6827 76.1262 21.8394 76.3129 22.0127L75.8129 22.6127C75.4329 22.2861 75.0062 22.0394 74.5329 21.8727C74.0596 21.6994 73.5196 21.6127 72.9129 21.6127C72.4129 21.6127 72.0362 21.6994 71.7829 21.8727C71.5362 22.0461 71.4129 22.2594 71.4129 22.5127C71.4129 22.6527 71.4362 22.7761 71.4829 22.8827C71.5296 22.9827 71.6062 23.0794 71.7129 23.1727C71.8262 23.2594 71.9729 23.3427 72.1529 23.4227C72.3329 23.4961 72.5562 23.5761 72.8229 23.6627L74.7129 24.2627C75.3196 24.4561 75.7962 24.7094 76.1429 25.0227C76.4896 25.3361 76.6629 25.7327 76.6629 26.2127Z" fill="white"/>
<path d="M150.009 17.281H139.527C138.892 17.3759 138.693 17.5496 138.677 18.1309V24.0801C138.74 25.01 138.946 25.2211 139.527 25.2132H145.476C149.191 22.5633 150.292 17.281 150.009 17.281Z" stroke="white" stroke-width="2"/>
<path d="M130.462 5.3826C131.312 6.23249 140.944 17.281 140.944 17.281H150.009C150.009 17.281 150.623 15.9642 150.293 15.2979L139.811 5.09932C139.811 5.09932 129.612 4.53272 130.462 5.3826Z" stroke="white" stroke-width="2"/>
<path d="M130.462 17.5643L135.561 11.3319C135.561 11.3319 131.312 6.23256 130.462 5.38267C129.612 4.53279 122.246 14.7314 121.963 15.298C121.68 15.8646 121.68 17.5643 121.963 17.5643H130.462Z" stroke="white" stroke-width="2"/>
<path d="M132.445 17.5645H130.178H121.963C122.604 20.9767 125.362 25.2134 126.212 25.2134H132.161C133.107 25.2173 133.284 24.9834 133.295 24.3635V18.6977C133.295 17.8478 133.13 17.5113 132.445 17.5645Z" stroke="white" stroke-width="2"/>
<rect x="111.552" width="0.566588" height="31.1623" fill="white"/>
</svg>
