<svg width="130" height="130" viewBox="0 0 130 130" fill="none" xmlns="http://www.w3.org/2000/svg">
<circle cx="65" cy="65" r="65" fill="url(#paint0_linear)"/>
<path d="M80.3809 98.501C78.4167 98.548 73.5278 98.5715 65.7143 98.5715C57.9008 98.5715 53.0119 98.548 51.0476 98.501C45.504 98.3601 41.3244 97.9606 38.5089 97.3026C35.6934 96.6447 34.2857 95.5403 34.2857 93.9895C34.2857 93.0495 34.7222 91.158 35.5952 88.3147C36.4682 85.4715 37.4286 82.4873 38.4762 79.3621C39.5238 76.2369 40.4841 72.6417 41.3571 68.5766C42.2302 64.5114 42.6667 60.9515 42.6667 57.8968C42.6667 48.8736 50.3492 44.3621 65.7143 44.3621C81.0794 44.3621 88.7619 48.8736 88.7619 57.8968C88.7619 60.9515 89.1984 64.5114 90.0714 68.5766C90.9444 72.6417 91.9048 76.2369 92.9524 79.3621C94 82.4873 94.9603 85.4715 95.8333 88.3147C96.7063 91.158 97.1429 93.0495 97.1429 93.9895C97.1429 95.5403 95.7351 96.6447 92.9196 97.3026C90.1042 97.9606 85.9246 98.3601 80.3809 98.501ZM65.7143 60.1526C68.6825 60.1526 71.1597 60.5286 73.1458 61.2805C75.1319 62.0324 76.1468 63.1368 76.1905 64.5937V64.6642C76.1905 65.2751 76.3978 65.8038 76.8125 66.2503C77.2272 66.6967 77.7182 66.92 78.2857 66.92C78.8532 66.92 79.3442 66.6967 79.7589 66.2503C80.1736 65.8038 80.3809 65.2751 80.3809 64.6642C80.3809 59.1657 76.1905 56.1815 67.8095 55.7115V53.3852C67.8095 52.7743 67.6022 52.2456 67.1875 51.7991C66.7728 51.3527 66.2817 51.1294 65.7143 51.1294C65.1468 51.1294 64.6557 51.3527 64.2411 51.7991C63.8264 52.2456 63.619 52.7743 63.619 53.3852V55.7115C55.2381 56.1815 51.0476 59.1657 51.0476 64.6642C51.0476 65.6981 51.1895 66.591 51.4732 67.3429C51.7569 68.0949 52.2153 68.7176 52.8482 69.211C53.4811 69.7045 54.1686 70.1039 54.9107 70.4094C55.6528 70.7149 56.6349 70.9381 57.8571 71.0791C59.0794 71.2201 60.2579 71.3141 61.3928 71.3611C62.5278 71.4081 63.9682 71.4316 65.7143 71.4316C68.7262 71.4316 71.2252 71.8193 73.2113 72.5947C75.1974 73.3701 76.1905 74.4863 76.1905 75.9431C76.1905 77.4 75.1974 78.5161 73.2113 79.2916C71.2252 80.067 68.7262 80.4547 65.7143 80.4547C62.746 80.4547 60.2688 80.0787 58.2827 79.3268C56.2966 78.5749 55.2817 77.4705 55.2381 76.0136V75.9431C55.2381 75.3322 55.0307 74.8035 54.6161 74.357C54.2014 73.9106 53.7103 73.6873 53.1428 73.6873C52.5754 73.6873 52.0843 73.9106 51.6696 74.357C51.255 74.8035 51.0476 75.3322 51.0476 75.9431C51.0476 81.4416 55.2381 84.4258 63.619 84.8958V87.2221C63.619 87.833 63.8264 88.3617 64.2411 88.8082C64.6557 89.2546 65.1468 89.4779 65.7143 89.4779C66.2817 89.4779 66.7728 89.2546 67.1875 88.8082C67.6022 88.3617 67.8095 87.833 67.8095 87.2221V84.8958C76.1905 84.4258 80.3809 81.4416 80.3809 75.9431C80.3809 69.9277 75.4921 66.92 65.7143 66.92C65.1032 66.92 64.3393 66.9317 63.4226 66.9552C62.5059 66.9787 61.7639 67.0022 61.1964 67.0257C60.629 67.0492 59.996 67.0492 59.2976 67.0257C58.5992 67.0022 58.0317 66.9435 57.5952 66.8495C57.1587 66.7555 56.744 66.6262 56.3512 66.4618C55.9583 66.2973 55.6746 66.0623 55.5 65.7568C55.3254 65.4514 55.2381 65.0871 55.2381 64.6642C55.2381 63.2073 56.2421 62.0912 58.25 61.3157C60.2579 60.5403 62.746 60.1526 65.7143 60.1526ZM65.7143 39.8505C63.0952 39.8505 60.6944 39.9915 58.5119 40.2734C57.5952 38.2996 56.8204 36.3846 56.1875 34.5282C55.5546 32.6719 55.2381 31.4383 55.2381 30.8273C55.2381 30.0754 55.8055 29.3235 56.9405 28.5715C57.9881 29.2295 59.3194 29.7699 60.9345 30.1929C62.5496 30.6158 64.1429 30.8273 65.7143 30.8273C67.2857 30.8273 68.879 30.6158 70.494 30.1929C72.1091 29.7699 73.4405 29.2295 74.4881 28.5715C75.623 29.3235 76.1905 30.0754 76.1905 30.8273C76.1905 31.4383 75.874 32.6719 75.2411 34.5282C74.6081 36.3846 73.8333 38.2996 72.9167 40.2734C70.7341 39.9915 68.3333 39.8505 65.7143 39.8505Z" fill="white"/>
<defs>
<linearGradient id="paint0_linear" x1="130" y1="92.8572" x2="-14.2857" y2="8.57143" gradientUnits="userSpaceOnUse">
<stop stop-color="#E7D07F"/>
<stop offset="1" stop-color="#F4D257"/>
</linearGradient>
</defs>
</svg>
