<svg width="130" height="130" viewBox="0 0 130 130" fill="none" xmlns="http://www.w3.org/2000/svg">
<circle cx="65" cy="65" r="65" fill="url(#paint0_linear)"/>
<path d="M43.1429 43.1434C43.1429 41.2111 43.9105 39.3579 45.2769 37.9916C46.6432 36.6253 48.4963 35.8577 50.4286 35.8577H75.9286C77.8609 35.8577 79.7141 36.6253 81.0804 37.9916C82.4468 39.3579 83.2144 41.2111 83.2144 43.1434V68.6434H94.1429V75.9291C94.1429 78.8275 92.9915 81.6073 90.942 83.6568C88.8925 85.7063 86.1128 86.8577 83.2144 86.8577H68.6429V77.7505C68.6429 75.3352 67.6834 73.0187 65.9755 71.3108C64.2676 69.6029 61.9511 68.6434 59.5358 68.6434H43.1429V43.1434ZM83.2144 83.2148C85.1466 83.2148 86.9998 82.4472 88.3661 81.0809C89.7325 79.7145 90.5001 77.8614 90.5001 75.9291V72.2862H83.2144V83.2148ZM55.8929 46.7862C55.4099 46.7862 54.9466 46.9781 54.605 47.3197C54.2634 47.6613 54.0715 48.1246 54.0715 48.6077C54.0715 49.0907 54.2634 49.554 54.605 49.8956C54.9466 50.2372 55.4099 50.4291 55.8929 50.4291H70.4644C70.9474 50.4291 71.4107 50.2372 71.7523 49.8956C72.0939 49.554 72.2858 49.0907 72.2858 48.6077C72.2858 48.1246 72.0939 47.6613 71.7523 47.3197C71.4107 46.9781 70.9474 46.7862 70.4644 46.7862H55.8929ZM55.8929 54.072C55.4099 54.072 54.9466 54.2639 54.605 54.6054C54.2634 54.947 54.0715 55.4103 54.0715 55.8934C54.0715 56.3765 54.2634 56.8397 54.605 57.1813C54.9466 57.5229 55.4099 57.7148 55.8929 57.7148H70.4644C70.9474 57.7148 71.4107 57.5229 71.7523 57.1813C72.0939 56.8397 72.2858 56.3765 72.2858 55.8934C72.2858 55.4103 72.0939 54.947 71.7523 54.6054C71.4107 54.2639 70.9474 54.072 70.4644 54.072H55.8929ZM59.5358 72.2862C60.985 72.2862 62.3749 72.8619 63.3996 73.8867C64.4244 74.9114 65.0001 76.3013 65.0001 77.7505V88.6791C65.0001 90.1283 64.4244 91.5182 63.3996 92.5429C62.3749 93.5677 60.985 94.1434 59.5358 94.1434H37.6786C36.2294 94.1434 34.8396 93.5677 33.8148 92.5429C32.7901 91.5182 32.2144 90.1283 32.2144 88.6791V77.7505C32.2144 76.3013 32.7901 74.9114 33.8148 73.8867C34.8396 72.8619 36.2294 72.2862 37.6786 72.2862H59.5358ZM61.3572 88.6791V85.0362C59.908 85.0362 58.5181 85.6119 57.4934 86.6367C56.4686 87.6614 55.8929 89.0513 55.8929 90.5005H59.5358C59.5358 90.0174 59.7277 89.5542 60.0693 89.2126C60.4109 88.871 60.8741 88.6791 61.3572 88.6791ZM61.3572 77.7505C60.8741 77.7505 60.4109 77.5586 60.0693 77.217C59.7277 76.8755 59.5358 76.4122 59.5358 75.9291H55.8929C55.8929 77.3783 56.4686 78.7682 57.4934 79.7929C58.5181 80.8177 59.908 81.3934 61.3572 81.3934V77.7505ZM37.6786 75.9291C37.6786 76.4122 37.4867 76.8755 37.1452 77.217C36.8036 77.5586 36.3403 77.7505 35.8572 77.7505V81.3934C37.3064 81.3934 38.6963 80.8177 39.721 79.7929C40.7458 78.7682 41.3215 77.3783 41.3215 75.9291H37.6786ZM35.8572 88.6791C36.3403 88.6791 36.8036 88.871 37.1452 89.2126C37.4867 89.5542 37.6786 90.0174 37.6786 90.5005H41.3215C41.3215 89.0513 40.7458 87.6614 39.721 86.6367C38.6963 85.6119 37.3064 85.0362 35.8572 85.0362V88.6791ZM48.6072 77.7505C47.158 77.7505 45.7681 78.3262 44.7434 79.351C43.7186 80.3757 43.1429 81.7656 43.1429 83.2148C43.1429 84.664 43.7186 86.0539 44.7434 87.0786C45.7681 88.1034 47.158 88.6791 48.6072 88.6791C50.0564 88.6791 51.4463 88.1034 52.471 87.0786C53.4958 86.0539 54.0715 84.664 54.0715 83.2148C54.0715 81.7656 53.4958 80.3757 52.471 79.351C51.4463 78.3262 50.0564 77.7505 48.6072 77.7505Z" fill="white"/>
<defs>
<linearGradient id="paint0_linear" x1="117.143" y1="84.2857" x2="5.70782e-06" y2="11.4286" gradientUnits="userSpaceOnUse">
<stop stop-color="#8CE0E0"/>
<stop offset="1" stop-color="#52D3DE"/>
</linearGradient>
</defs>
</svg>
