<svg width="95" height="95" viewBox="0 0 95 95" fill="none" xmlns="http://www.w3.org/2000/svg">
<circle cx="47.5" cy="47.5" r="47.5" fill="white"/>
<g clip-path="url(#clip0)">
<path d="M33.3666 67.6817L34.314 68.15C38.2618 70.491 42.683 71.5836 47.1044 71.5836C61 71.5836 72.369 60.3462 72.369 46.6116C72.369 40.0566 69.6845 33.6574 64.9476 28.9751C60.2104 24.2928 53.8941 21.6396 47.1044 21.6396C33.2089 21.6396 21.8396 32.877 21.9976 46.7678C21.9976 51.4499 23.4187 55.9762 25.7872 59.8779L26.4187 60.8145L23.8925 70.023L33.3666 67.6817Z" fill="#00E676"/>
<path d="M67.6319 26.4778C62.2631 21.0153 54.8417 18.0498 47.2622 18.0498C31.1562 18.0498 18.208 31.004 18.3658 46.7675C18.3658 51.7619 19.7869 56.6004 22.1556 60.9704L18.05 75.7975L33.3667 71.8956C37.6301 74.2369 42.367 75.3295 47.1044 75.3295C63.0527 75.3295 76.0009 62.3751 76.0009 46.6118C76.0009 38.9639 73.0006 31.7844 67.6321 26.4778H67.6319ZM47.2622 70.4912C42.9988 70.4912 38.7354 69.3989 35.1036 67.2138L34.1562 66.7455L24.9979 69.0865L27.3664 60.1904L26.7348 59.2538C19.7869 48.1726 23.103 33.5012 34.472 26.6338C45.8411 19.7666 60.5262 23.0442 67.4741 34.2816C74.4218 45.519 71.1057 60.034 59.7369 66.9014C56.1048 69.2425 51.6836 70.491 47.2622 70.491V70.4912ZM61.1578 53.1671L59.4209 52.3866C59.4209 52.3866 56.8946 51.2941 55.3155 50.5137C55.1575 50.5137 54.9997 50.3575 54.8417 50.3575C54.3679 50.3575 54.0521 50.5137 53.7363 50.6698C53.7363 50.6698 53.5785 50.8258 51.3678 53.323C51.2098 53.6351 50.8941 53.7913 50.5783 53.7913H50.4203C50.2625 53.7913 49.9467 53.6351 49.7887 53.4792L48.9991 53.1671C47.2622 52.3866 45.6833 51.45 44.42 50.2015C44.1042 49.8894 43.6304 49.5773 43.3146 49.2652C42.2093 48.1726 41.1039 46.9239 40.3146 45.5192L40.1566 45.2071C39.9988 45.0509 39.9988 44.895 39.8408 44.5829C39.8408 44.2707 39.8408 43.9586 39.9988 43.8024C39.9988 43.8024 40.6303 43.022 41.1039 42.5539C41.4199 42.2416 41.5777 41.7735 41.8935 41.4614C42.2093 40.9931 42.3673 40.3688 42.2093 39.9005C42.0515 39.1201 40.1566 34.9061 39.683 33.9697C39.367 33.5014 39.0514 33.3455 38.5776 33.1893H36.8407C36.5247 33.1893 36.2092 33.3455 35.8932 33.3455L35.7352 33.5014C35.4194 33.6576 35.1036 33.9697 34.7878 34.1257C34.472 34.438 34.314 34.7499 33.9982 35.0623C32.8929 36.4669 32.2613 38.1837 32.2613 39.9005C32.2613 41.149 32.5771 42.3978 33.0509 43.4903L33.2089 43.9586C34.63 46.9239 36.5247 49.5773 39.0514 51.9183L39.683 52.5426C40.1566 53.0109 40.6303 53.323 40.9461 53.7911C44.2622 56.6007 48.0518 58.6296 52.3152 59.7221C52.789 59.8781 53.4205 59.8781 53.8943 60.0342H55.4732C56.2628 60.0342 57.2102 59.7221 57.8419 59.41C58.3155 59.0979 58.6313 59.0979 58.9471 58.7857L59.2631 58.4734C59.5789 58.1613 59.8946 58.0053 60.2104 57.6932C60.5262 57.3811 60.842 57.069 61 56.7566C61.3158 56.1324 61.4736 55.3519 61.6316 54.5717V53.4792C61.6316 53.4792 61.4736 53.323 61.1578 53.1671Z" fill="white"/>
</g>
<defs>
<clipPath id="clip0">
<rect width="57.95" height="57.95" fill="white" transform="translate(18.05 18.0498)"/>
</clipPath>
</defs>
</svg>
